<?xml version="1.0" encoding="utf-8"?>
<!-- Generator: Adobe Illustrator 25.4.1, SVG Export Plug-In . SVG Version: 6.00 Build 0)  -->
<svg version="1.1" id="Layer_1" xmlns="http://www.w3.org/2000/svg" xmlns:xlink="http://www.w3.org/1999/xlink" x="0px" y="0px"
	 viewBox="0 0 256 256" style="enable-background:new 0 0 256 256;" xml:space="preserve">
<style type="text/css">
	.st0{fill:#FFFFFF;}
	.st1{display:none;fill:#259978;}
	.st2{clip-path:url(#SVGID_00000050654482700121717860000000955849843697574314_);}
	.st3{fill:#259978;}
	.st4{fill:url(#SVGID_00000112594464514264358180000014142590167571475361_);}
</style>
<rect class="st0" width="256" height="256"/>
<g>
	<g>
		<rect x="38.2" y="-814.4" class="st1" width="1025.5" height="394"/>
		<rect x="38.2" y="-814.4" class="st1" width="1025.5" height="394"/>
	</g>
</g>
<g>
	<defs>
		<rect id="SVGID_1_" x="-505.2" y="-2915.9" width="839.9" height="322.7"/>
	</defs>
	<use xlink:href="#SVGID_1_"  style="display:none;overflow:visible;fill:#FFFFFF;"/>
	<clipPath id="SVGID_00000047746131066072355300000009104163200972802713_">
		<use xlink:href="#SVGID_1_"  style="display:none;overflow:visible;"/>
	</clipPath>
	<g style="clip-path:url(#SVGID_00000047746131066072355300000009104163200972802713_);">
		<defs>
			<rect id="SVGID_00000167370773555410444530000000729262148856722347_" x="-505.2" y="-2915.9" width="839.9" height="322.7"/>
		</defs>
		
			<use xlink:href="#SVGID_00000167370773555410444530000000729262148856722347_"  style="display:none;overflow:visible;fill:#FFFFFF;"/>
		<clipPath id="SVGID_00000125579682966936939980000001084624931400075148_">
			<use xlink:href="#SVGID_00000167370773555410444530000000729262148856722347_"  style="display:none;overflow:visible;"/>
		</clipPath>
	</g>
</g>
<g>
	<polygon class="st3" points="167.8,110.9 178.1,78 173.2,78 162.9,110.9 	"/>
	<polygon class="st3" points="169,78 164.2,78 153.9,110.9 158.8,110.9 	"/>
	<path class="st3" d="M191.1,106.6c-3.3,0-5.5-1.5-6.3-4.4l-4.2,2c1.1,4.7,4.7,7.4,10.3,7.4c6.7,0,10.8-4,10.8-10
		c0-4.7-2.7-7-8.4-9.6c-3.6-1.7-6.2-2.6-6.2-5.8c0-2.5,1.8-4.1,4.6-4.1c2,0,3.5,1,4.8,3l4.1-2.1c-1.2-3.4-4.5-5.4-9.3-5.4
		c-5.9,0-9.8,3.7-9.8,8.9c0,4.9,3.2,7.1,8.9,9.9c3.4,1.6,5.8,2.4,5.8,5.6C196.3,104.7,194.3,106.6,191.1,106.6z"/>
	<polygon class="st3" points="212.7,110.6 217.9,110.6 217.9,82.6 226.5,82.6 226.5,78.1 204,78.1 204,82.6 212.7,82.6 	"/>
	<path class="st3" d="M108.1,96h0.6l10.8,14.5h5.9l-11.2-14.8c4.9-0.6,7.4-3.5,7.4-8.8c0-3-1.2-5.6-3.1-7.1c-2-1.5-4.6-1.8-8.1-1.8
		h-7.4v32.5h4.9V96z M108.4,82.6h1c4.7,0,6.9,0.9,6.9,4.9c0,3.9-2.3,4.4-6.9,4.4h-1V82.6z"/>
	<path class="st3" d="M138.6,111.4c8.9,0,13.3-4.4,13.3-13.1V78.1h-5.3v19.7c0,5.9-2.7,8.8-8.1,8.8c-5.4,0-8.1-3-8.1-8.8V78.1h-5.2
		v20.2C125.3,107.1,129.7,111.4,138.6,111.4z"/>
	<path class="st3" d="M92.5,116.8c-1-0.7-2.2-0.8-3.7-0.8h-0.5h-3.2v14.8h2.3v-6.6h0.9h0.5c1.5,0,2.7,0,3.7-0.7
		c0.9-0.7,1.5-1.9,1.5-3.3C94,118.7,93.4,117.5,92.5,116.8z M88.2,122.2h-0.6v-4.1h0.6c2.2,0,3.3,0.4,3.3,2.1
		C91.5,122,90.4,122.2,88.2,122.2z"/>
	<path class="st3" d="M97.4,130.8h2.5l1.7-3.8h5.8l1.7,3.8h2.5l-7.2-15.4L97.4,130.8z M105.2,121.7l1.5,3.4h-4.1l1.5-3.4
		c0.2-0.4,0.4-0.9,0.5-1.7C104.8,120.7,105,121.3,105.2,121.7z"/>
	<path class="st3" d="M121.7,121c-0.2,0.4-0.4,0.8-0.6,1.2c-0.3-0.7-0.6-1.1-0.6-1.2l-3.1-5h-2.5l5,8v6.8h2.4v-6.8l5.1-8h-2.4
		L121.7,121z"/>
	<path class="st3" d="M141.9,124.8c-0.2,0.5-0.6,1.2-0.8,2c-0.4-1.1-0.7-1.7-0.8-2l-4.4-9.3l-3.5,15.4h2.2l1.6-7.3
		c0.1-0.7,0.2-1.3,0.3-2c0.2,0.7,0.4,1.3,0.7,1.9l3.9,8l3.9-7.9c0.3-0.7,0.6-1.3,0.7-2c0.1,1.1,0.2,1.8,0.3,2l1.6,7.3h2.2l-3.6-15.4
		L141.9,124.8z"/>
	<polygon class="st3" points="157.2,130.8 165.4,130.8 165.4,128.7 159.6,128.7 159.6,123.9 165.4,123.9 165.4,121.8 159.6,121.8 
		159.6,118.1 165.4,118.1 165.4,116.1 157.2,116.1 	"/>
	<path class="st3" d="M184.3,126.3c-0.5-0.6-1-1.2-1.6-1.8l-9.4-9v15.4h2.2v-10.3c0.4,0.6,0.9,1.1,1.4,1.7l9.6,9.2v-15.4h-2.2V126.3
		z"/>
	<polygon class="st3" points="193.6,118.1 197.5,118.1 197.5,130.8 199.9,130.8 199.9,118.1 203.8,118.1 203.8,116.1 193.6,116.1 	
		"/>
	<path class="st3" d="M214.5,122.3c-1.7-0.8-2.8-1.2-2.8-2.6c0-1.1,0.8-1.9,2.1-1.9c0.9,0,1.6,0.4,2.2,1.3l1.9-1
		c-0.6-1.5-2.1-2.4-4.3-2.4c-2.7,0-4.4,1.7-4.4,4.1c0,2.2,1.4,3.2,4.1,4.5c1.5,0.7,2.6,1.1,2.6,2.5c0,1.3-0.9,2.2-2.3,2.2
		c-1.5,0-2.5-0.7-2.9-2l-1.9,0.9c0.5,2.1,2.1,3.3,4.7,3.3c3.1,0,4.9-1.8,4.9-4.6C218.3,124.5,217.1,123.5,214.5,122.3z"/>
	<path class="st3" d="M36.9,141.8h11.4l188.5,0.1V65.1H60.9L36.9,141.8z M235,67v73.1H48.8L71.7,67H235z"/>
	<polygon class="st3" points="43.5,65.1 19.6,141.8 31,141.8 54.9,65.1 	"/>
	<path class="st3" d="M247.1,66.5c-0.8-0.8-2-1.3-3.2-1.3c-1.3,0-2.4,0.5-3.2,1.3c-0.8,0.8-1.3,2-1.3,3.2c0,1.3,0.5,2.4,1.3,3.2
		c0.8,0.8,2,1.3,3.2,1.3c1.3,0,2.4-0.5,3.2-1.3c0.8-0.8,1.3-2,1.3-3.2C248.4,68.4,247.9,67.3,247.1,66.5z M246.7,72.5
		c-0.7,0.7-1.7,1.2-2.8,1.2s-2.1-0.4-2.8-1.2c-0.7-0.7-1.2-1.7-1.2-2.8c0-1.1,0.4-2.1,1.2-2.8c0.7-0.7,1.7-1.2,2.8-1.2
		s2.1,0.4,2.8,1.2c0.7,0.7,1.2,1.7,1.2,2.8C247.8,70.8,247.4,71.7,246.7,72.5z"/>
	<path class="st3" d="M245.3,70.1c0.2-0.1,0.3-0.3,0.4-0.5c0.1-0.2,0.1-0.4,0.1-0.7v0c0-0.2,0-0.4-0.1-0.6c-0.1-0.2-0.2-0.3-0.3-0.5
		c-0.2-0.2-0.4-0.3-0.6-0.4c-0.2-0.1-0.5-0.1-0.8-0.1h-2.2v4.8h1v-1.5h0.8h0l1,1.5h1.2l-1.2-1.7C245,70.3,245.2,70.2,245.3,70.1z
		 M244.7,68.9c0,0.1,0,0.3-0.1,0.4c-0.1,0.1-0.2,0.2-0.3,0.2c-0.1,0.1-0.3,0.1-0.4,0.1h-1.1v-1.4h1c0.2,0,0.3,0,0.4,0.1
		s0.2,0.1,0.3,0.2C244.7,68.7,244.7,68.8,244.7,68.9L244.7,68.9z"/>
	<polygon class="st3" points="85.5,110.6 90.8,110.6 90.8,82.6 99.4,82.6 99.4,78.1 76.9,78.1 76.9,82.6 85.5,82.6 	"/>
</g>
<g>
	
		<linearGradient id="SVGID_00000016767765485518197590000013077505247612989827_" gradientUnits="userSpaceOnUse" x1="0" y1="231.5061" x2="256" y2="231.5061">
		<stop  offset="0" style="stop-color:#268D69"/>
		<stop  offset="1" style="stop-color:#3BB48A"/>
	</linearGradient>
	<rect y="207" style="fill:url(#SVGID_00000016767765485518197590000013077505247612989827_);" width="256" height="49"/>
</g>
<g>
	<path class="st0" d="M19.4,218.6v14.8c0,7.1,5.8,12.9,12.9,12.9c7.1,0,12.9-5.8,12.9-12.9v-14.8l-12.9-2.7L19.4,218.6z M43.5,233.4
		c0,6.2-5,11.2-11.2,11.2c-6.2,0-11.2-5-11.2-11.2V220l11.2-2.3l11.2,2.3V233.4z"/>
	<path class="st0" d="M32.3,232.5c-0.8,0-1.4,0.6-1.4,1.4c0,0.8,0.6,1.4,1.4,1.4s1.4-0.6,1.4-1.4C33.7,233.1,33.1,232.5,32.3,232.5z
		 M32.3,234.2c-0.2,0-0.4-0.2-0.4-0.4c0-0.2,0.2-0.4,0.4-0.4s0.4,0.2,0.4,0.4C32.7,234.1,32.5,234.2,32.3,234.2z"/>
	<path class="st0" d="M28.4,226.4v3.2h-2v8.8h11.8v-8.8h-2v-3.2c0-2.1-1.7-3.9-3.9-3.9C30.2,222.5,28.4,224.2,28.4,226.4z
		 M36.2,231.2h0.3v5.3h-8.3v-5.3h0.3h1.7h4.3H36.2z M34.5,226.4v3.2h-4.3v-3.2c0-1.2,1-2.2,2.2-2.2
		C33.5,224.2,34.5,225.2,34.5,226.4z"/>
	<path class="st0" d="M55.4,230.5l2.5-2.9v-1.2h-6.2v1.6h3.1c0.6,0,0.9,0,0.9,0v0c0,0-0.3,0.3-0.7,0.8L53,231l0.4,0.9h0.7
		c1.2,0,2.2,0.5,2.2,1.6c0,0.9-0.8,1.5-1.8,1.5c-1.4,0-2.3-1-2.3-1l-0.9,1.4c0,0,1.2,1.4,3.4,1.4c2.3,0,3.6-1.6,3.6-3.4
		C58.2,231.7,56.8,230.7,55.4,230.5z"/>
	<path class="st0" d="M63.5,226.4H60v10.2h3.5c3.2,0,5.2-1.9,5.2-5.1C68.7,228.3,66.6,226.4,63.5,226.4z M63.4,235h-1.5v-7h1.5
		c2,0,3.4,1.2,3.4,3.5C66.8,233.8,65.5,235,63.4,235z"/>
	<path class="st0" d="M75.5,229.2c0-0.7,0.7-1.2,1.5-1.2c1.3,0,2.3,0.9,2.3,0.9l0.8-1.5c0,0-1-1.1-3.1-1.1c-2,0-3.4,1.3-3.4,3
		c0,3.1,4.8,2.8,4.8,4.6c0,0.8-0.7,1.2-1.5,1.2c-1.4,0-2.5-1.1-2.5-1.1l-1,1.4c0,0,1.3,1.4,3.5,1.4c2.1,0,3.4-1.4,3.4-3
		C80.3,230.5,75.5,231,75.5,229.2z"/>
	<polygon class="st0" points="83.8,232.3 87.3,232.3 87.3,230.7 83.8,230.7 83.8,228 88.1,228 88.1,226.4 82,226.4 82,236.6 
		88.3,236.6 88.3,235 83.8,235 	"/>
	<path class="st0" d="M94.5,235.1c-2.1,0-3.4-1.7-3.4-3.7c0-1.9,1.3-3.5,3.4-3.5c1.6,0,2.8,1.1,2.8,1.1l0.9-1.4c0,0-1.3-1.4-3.8-1.4
		c-3,0-5.3,2.3-5.3,5.2c0,3,2.2,5.3,5.3,5.3c2.6,0,4-1.7,4-1.7l-1-1.3C97.5,233.8,96.3,235.1,94.5,235.1z"/>
	<path class="st0" d="M106,232.9c0,1.4-0.9,2.2-2.3,2.2c-1.4,0-2.3-0.8-2.3-2.1v-6.5h-1.9v6.5c0,2.3,1.7,3.8,4.1,3.8
		c2.5,0,4.1-1.6,4.1-3.8v-6.5H106V232.9z"/>
	<path class="st0" d="M115.4,232.3L115.4,232.3c1.1-0.5,1.7-1.6,1.7-2.8c0-1.4-0.6-2.3-1.7-2.8c-0.4-0.2-0.9-0.3-2.1-0.3h-3.3v10.2
		h1.9v-3.8h1.8l2,3.8h2.1l-2.1-3.8C115.5,232.4,115.4,232.3,115.4,232.3z M113.6,231.2h-1.7V228h1.4c1.5,0,1.9,0.6,1.9,1.6
		C115.2,230.6,114.6,231.2,113.6,231.2z"/>
	<polygon class="st0" points="121.1,232.3 124.6,232.3 124.6,230.7 121.1,230.7 121.1,228 125.4,228 125.4,226.4 119.3,226.4 
		119.3,236.6 125.6,236.6 125.6,235 121.1,235 	"/>
	<path class="st0" d="M137.2,229.3c0-1.9-1.5-3-3.3-3c-2.4,0-3.4,2-3.4,2l1.4,0.9c0,0,0.6-1.2,1.8-1.2c0.9,0,1.6,0.5,1.6,1.4
		c0,2-4.8,2.6-4.8,6.3c0,0.3,0,0.6,0.1,0.9h6.8V235h-4.8C132.6,233.1,137.2,232.5,137.2,229.3z"/>
	<rect x="139.2" y="234.8" class="st0" width="1.8" height="1.8"/>
	<path class="st0" d="M146.2,226.2c-2.8,0-3.7,2.3-3.7,5.3c0,2.9,0.9,5.3,3.7,5.3c2.8,0,3.7-2.4,3.7-5.3
		C149.9,228.6,149,226.2,146.2,226.2z M146.2,235.1c-1.4,0-1.8-1.6-1.8-3.6c0-2,0.4-3.6,1.8-3.6c1.4,0,1.8,1.6,1.8,3.6
		C148,233.5,147.6,235.1,146.2,235.1z"/>
	<path class="st0" d="M156.5,229.2c0-0.7,0.7-1.2,1.5-1.2c1.3,0,2.3,0.9,2.3,0.9l0.8-1.5c0,0-1-1.1-3.1-1.1c-2,0-3.4,1.3-3.4,3
		c0,3.1,4.8,2.8,4.8,4.6c0,0.8-0.7,1.2-1.5,1.2c-1.4,0-2.5-1.1-2.5-1.1l-1,1.4c0,0,1.3,1.4,3.5,1.4c2.1,0,3.4-1.4,3.4-3
		C161.3,230.5,156.5,231,156.5,229.2z"/>
	<path class="st0" d="M169.2,232.9c0,1.4-0.9,2.2-2.3,2.2c-1.4,0-2.3-0.8-2.3-2.1v-6.5h-1.9v6.5c0,2.3,1.7,3.8,4.1,3.8
		c2.5,0,4.1-1.6,4.1-3.8v-6.5h-1.9V232.9z"/>
	<path class="st0" d="M177.3,226.4h-3.9v10.2h1.9v-3.5h2.1c1.9,0,3.3-1.4,3.3-3.4S179.2,226.4,177.3,226.4z M176.9,231.5h-1.7V228
		h1.8c1.1,0,1.7,0.7,1.7,1.7C178.6,230.8,178,231.5,176.9,231.5z"/>
	<path class="st0" d="M185.8,226.4h-3.9v10.2h1.9v-3.5h2.1c1.9,0,3.3-1.4,3.3-3.4S187.7,226.4,185.8,226.4z M185.5,231.5h-1.7V228
		h1.8c1.1,0,1.7,0.7,1.7,1.7C187.2,230.8,186.6,231.5,185.5,231.5z"/>
	<path class="st0" d="M195.2,226.2c-3,0-5.3,2.3-5.3,5.2c0,3,2.3,5.4,5.3,5.4c3,0,5.3-2.3,5.3-5.4
		C200.5,228.5,198.2,226.2,195.2,226.2z M195.2,235.1c-1.9,0-3.4-1.6-3.4-3.7c0-2,1.5-3.5,3.4-3.5c1.9,0,3.4,1.5,3.4,3.5
		C198.6,233.5,197.1,235.1,195.2,235.1z"/>
	<path class="st0" d="M207.5,232.3L207.5,232.3c1.1-0.5,1.7-1.6,1.7-2.8c0-1.4-0.6-2.3-1.7-2.8c-0.4-0.2-0.9-0.3-2.1-0.3h-3.3v10.2
		h1.9v-3.8h1.8l2,3.8h2.1l-2.1-3.8C207.7,232.4,207.5,232.3,207.5,232.3z M205.7,231.2h-1.7V228h1.4c1.5,0,1.9,0.6,1.9,1.6
		C207.3,230.6,206.7,231.2,205.7,231.2z"/>
	<polygon class="st0" points="210.2,228 213.5,228 213.5,236.6 215.4,236.6 215.4,228 218.7,228 218.7,226.4 210.2,226.4 	"/>
	<polygon class="st0" points="221.7,232.3 225.2,232.3 225.2,230.7 221.7,230.7 221.7,228 226,228 226,226.4 219.9,226.4 
		219.9,236.6 226.2,236.6 226.2,235 221.7,235 	"/>
	<path class="st0" d="M231.4,226.4h-3.5v10.2h3.5c3.2,0,5.2-1.9,5.2-5.1C236.6,228.3,234.6,226.4,231.4,226.4z M231.3,235h-1.5v-7
		h1.5c2,0,3.4,1.2,3.4,3.5C234.7,233.8,233.4,235,231.3,235z"/>
</g>
</svg>
